<?xml version="1.0" standalone="no"?>
<!DOCTYPE svg PUBLIC "-//W3C//DTD SVG 20010904//EN"
 "http://www.w3.org/TR/2001/REC-SVG-20010904/DTD/svg10.dtd">
<svg version="1.0" xmlns="http://www.w3.org/2000/svg"
 width="523.000000pt" height="523.000000pt" viewBox="0 0 523.000000 523.000000"
 preserveAspectRatio="xMidYMid meet">
<metadata>
Created by potrace 1.11, written by Peter Selinger 2001-2013
</metadata>
<g transform="translate(0.000000,523.000000) scale(0.100000,-0.100000)"
fill="#000000" stroke="none">
<path d="M2415 4576 c-285 -75 -549 -289 -666 -539 -38 -84 -59 -187 -66 -339
-5 -97 -9 -128 -19 -128 -8 0 -28 -13 -45 -28 -24 -21 -32 -38 -36 -75 -5 -43
-3 -49 30 -82 l35 -35 95 0 96 0 -15 -27 c-17 -34 -18 -73 -2 -107 10 -24 6
-31 -59 -103 -211 -234 -334 -436 -350 -575 -7 -54 -8 -55 -95 -37 -74 16
-167 67 -275 153 l-92 73 28 44 c15 24 89 118 165 209 205 245 297 396 341
555 25 93 30 256 11 339 -50 213 -215 365 -446 412 -282 56 -561 -88 -703
-364 -67 -128 -91 -223 -91 -357 -1 -99 1 -114 24 -155 32 -56 81 -90 132 -90
87 0 125 49 114 148 -3 31 -9 84 -12 117 -18 168 83 350 237 432 48 25 64 28
150 28 90 0 99 -2 171 -38 198 -98 247 -283 139 -522 -34 -75 -124 -216 -231
-360 -72 -97 -185 -265 -192 -284 -2 -7 -25 -5 -63 6 -73 19 -211 21 -285 4
-187 -44 -345 -178 -411 -349 -30 -79 -38 -242 -14 -332 58 -228 228 -395 436
-430 178 -30 378 29 509 150 l53 49 61 -21 c51 -19 84 -22 201 -23 127 0 148
3 232 29 l92 29 48 -54 c67 -75 217 -219 348 -332 61 -52 125 -114 143 -136
39 -49 97 -170 107 -224 27 -141 -90 -260 -256 -260 -85 0 -143 27 -204 95
-63 70 -79 130 -68 251 11 122 4 164 -36 199 -23 21 -42 28 -72 28 -117 0
-192 -117 -192 -300 0 -263 162 -483 408 -556 81 -24 239 -24 320 0 133 40
230 111 304 222 102 152 130 333 77 500 -49 155 -135 267 -375 488 -167 154
-251 239 -251 253 0 5 34 37 75 73 243 209 468 550 566 858 l23 72 52 0 52 0
31 -92 c17 -51 60 -151 95 -223 111 -227 231 -391 417 -569 l112 -107 -30 -37
c-17 -20 -117 -118 -222 -217 -217 -202 -295 -294 -351 -410 -48 -101 -64
-169 -62 -270 3 -251 168 -470 407 -541 81 -24 239 -24 320 0 180 53 327 198
384 376 33 104 31 264 -5 355 -44 112 -163 161 -234 97 -40 -35 -50 -82 -39
-184 16 -136 -8 -215 -87 -288 -59 -55 -105 -73 -184 -73 -84 0 -156 31 -209
88 -65 71 -67 154 -6 283 48 102 70 127 234 271 80 71 199 183 264 250 l118
122 67 -24 c154 -56 342 -62 478 -16 l71 25 44 -39 c55 -48 165 -102 248 -123
83 -21 254 -15 326 10 217 77 368 305 368 556 0 202 -109 381 -290 478 -130
68 -298 89 -435 53 l-67 -17 -36 58 c-20 32 -75 111 -122 175 -241 330 -306
461 -306 618 0 130 72 237 203 299 59 28 74 31 160 31 83 0 102 -3 150 -27
105 -51 185 -149 222 -272 18 -60 20 -81 13 -165 -16 -185 -14 -199 23 -232
74 -67 201 -13 232 99 25 91 4 273 -47 400 -57 141 -181 290 -305 365 -177
107 -400 114 -593 18 -98 -49 -161 -103 -214 -182 -63 -94 -86 -180 -85 -319
2 -245 92 -432 359 -746 105 -123 175 -213 175 -224 0 -4 -44 -42 -97 -83
-127 -99 -206 -138 -293 -145 l-66 -4 -18 63 c-9 35 -31 91 -48 124 -40 80
-170 259 -267 370 -73 82 -79 91 -65 107 24 25 29 91 11 127 l-15 31 85 0 c69
0 90 4 114 20 65 47 53 159 -20 190 l-28 11 -6 122 c-10 207 -49 349 -130 475
-122 189 -313 329 -542 398 -74 22 -115 27 -230 30 -124 4 -151 1 -230 -20z
m-329 -1481 c-46 -109 -162 -269 -275 -380 -73 -71 -78 -60 -27 57 40 91 98
175 196 281 51 55 79 77 96 77 24 0 24 -1 10 -35z m314 31 c0 -2 -15 -40 -34
-84 -100 -234 -287 -494 -481 -668 -42 -38 -83 -72 -90 -76 -10 -6 -19 9 -34
54 -12 34 -21 69 -21 78 0 8 36 39 80 68 153 101 340 302 495 530 58 86 85
117 85 98z m554 -128 c185 -255 322 -390 524 -514 6 -4 -17 -102 -33 -140 -19
-45 -24 -42 -152 84 -168 166 -308 363 -403 567 -60 128 -62 135 -46 135 7 0
57 -60 110 -132z m283 46 c90 -98 152 -187 188 -268 l25 -57 -32 25 c-38 28
-108 108 -161 181 -41 57 -117 186 -117 197 0 21 25 1 97 -78z m1494 -464
c201 -62 271 -244 148 -384 -49 -56 -117 -92 -208 -112 -66 -14 -222 -19 -233
-8 -4 3 11 31 33 61 21 31 48 81 60 112 25 66 36 210 22 288 -10 51 -10 52 16
56 60 9 102 6 162 -13z m-4059 -105 c-6 -149 36 -277 125 -382 l45 -53 -129 0
c-188 0 -284 29 -363 111 -164 169 -12 415 250 406 l75 -2 -3 -80z m3686 -52
c-6 -132 -70 -228 -196 -291 -84 -41 -159 -56 -257 -49 -61 5 -162 27 -182 41
-1 1 13 42 32 91 19 50 34 100 35 112 0 12 4 24 9 27 5 3 47 1 95 -5 60 -7
107 -7 152 0 77 12 189 62 254 114 25 20 49 36 54 36 4 1 6 -34 4 -76z m-3439
8 c54 -43 139 -87 200 -105 56 -16 171 -20 251 -8 l45 7 33 -90 c19 -49 36
-97 39 -106 4 -14 -9 -20 -66 -33 -273 -62 -524 79 -548 310 -3 30 -2 54 2 54
4 0 24 -13 44 -29z"/>
</g>
</svg>
